<svg xmlns="http://www.w3.org/2000/svg" xmlns:xlink="http://www.w3.org/1999/xlink" width="2000" zoomAndPan="magnify" viewBox="0 0 1500 1499.999933" height="2000" preserveAspectRatio="xMidYMid meet" version="1.0"><defs><filter x="0%" y="0%" width="100%" height="100%" id="2945fa455c"><feColorMatrix values="0 0 0 0 1 0 0 0 0 1 0 0 0 0 1 0 0 0 1 0" color-interpolation-filters="sRGB"/></filter><clipPath id="cc1afd3cc4"><path d="M 0.320312 0 L 1444 0 L 1444 1500 L 0.320312 1500 Z M 0.320312 0 " clip-rule="nonzero"/></clipPath><mask id="10b99157f1"><g filter="url(#2945fa455c)"><rect x="-358" width="2160" fill="#000000" y="-329.999985" height="2159.999904" fill-opacity="0.33"/></g></mask><clipPath id="28a9713083"><path d="M 1.511719 1.078125 L 566.007812 1.078125 L 566.007812 540 L 1.511719 540 Z M 1.511719 1.078125 " clip-rule="nonzero"/></clipPath><clipPath id="a0beb05189"><rect x="0" width="570" y="0" height="541"/></clipPath><mask id="b2910e34df"><g filter="url(#2945fa455c)"><rect x="-358" width="2160" fill="#000000" y="-329.999985" height="2159.999904" fill-opacity="0.33"/></g></mask><clipPath id="5bae6bd11f"><path d="M 2 1 L 480 1 L 480 765 L 2 765 Z M 2 1 " clip-rule="nonzero"/></clipPath><clipPath id="6a30d41323"><path d="M 1.386719 1.246094 L 480.675781 1.078125 L 480.945312 764.390625 L 1.65625 764.558594 Z M 1.386719 1.246094 " clip-rule="nonzero"/></clipPath><clipPath id="f1b887800d"><path d="M 1.386719 1.246094 L 480.675781 1.078125 L 480.945312 764.390625 L 1.65625 764.558594 Z M 1.386719 1.246094 " clip-rule="nonzero"/></clipPath><clipPath id="27a846b52b"><rect x="0" width="481" y="0" height="767"/></clipPath><clipPath id="17607497f1"><path d="M 441 424 L 920 424 L 920 1188 L 441 1188 Z M 441 424 " clip-rule="nonzero"/></clipPath><clipPath id="c132e8bc44"><path d="M 441 424.246094 L 920.289062 424.078125 L 920.558594 1187.390625 L 441.269531 1187.558594 Z M 441 424.246094 " clip-rule="nonzero"/></clipPath><clipPath id="0b46444edd"><path d="M 441 424.246094 L 920.289062 424.078125 L 920.558594 1187.390625 L 441.269531 1187.558594 Z M 441 424.246094 " clip-rule="nonzero"/></clipPath><clipPath id="40abc4aeb4"><path d="M 443 312 L 667 312 L 667 527 L 443 527 Z M 443 312 " clip-rule="nonzero"/></clipPath><clipPath id="a2c19df8bd"><path d="M 591.84375 311.070312 L 673.996094 443.933594 L 523.015625 537.289062 L 440.859375 404.425781 Z M 591.84375 311.070312 " clip-rule="nonzero"/></clipPath><clipPath id="c655cea492"><path d="M 591.84375 311.070312 L 673.996094 443.933594 L 523.015625 537.289062 L 440.859375 404.425781 Z M 591.84375 311.070312 " clip-rule="nonzero"/></clipPath><clipPath id="fb6852dacf"><rect x="0" width="1445" y="0" height="1500"/></clipPath></defs><rect x="-150" width="1800" fill="#ffffff" y="-149.999993" height="1799.99992" fill-opacity="1"/><rect x="-150" width="1800" fill="#ffffff" y="-149.999993" height="1799.99992" fill-opacity="1"/><g transform="matrix(1, 0, 0, 1, 28, 0.000000000000112861)"><g clip-path="url(#fb6852dacf)"><path fill="#fefbf2" d="M 1401.761719 749.859375 C 1401.761719 673.890625 1438.203125 593.160156 1415.777344 524.480469 C 1392.789062 453.558594 1314.863281 409.546875 1271.972656 350.402344 C 1228.523438 290.691406 1210.582031 203.234375 1150.875 159.78125 C 1091.726562 116.613281 1003.425781 126.425781 932.222656 103.4375 C 863.546875 81.292969 798.230469 20.742188 722.261719 20.742188 C 646.296875 20.742188 580.703125 81.292969 512.304688 103.4375 C 441.382812 126.425781 352.800781 116.894531 293.652344 159.78125 C 233.945312 203.234375 216.003906 290.691406 172.554688 350.402344 C 129.664062 409.828125 51.734375 453.558594 28.75 524.480469 C 6.605469 593.160156 42.765625 673.890625 42.765625 749.859375 C 42.765625 825.824219 6.324219 906.558594 28.75 975.234375 C 51.734375 1046.15625 129.664062 1090.167969 172.554688 1149.316406 C 216.003906 1209.023438 233.945312 1296.484375 293.652344 1339.933594 C 352.800781 1383.101562 441.101562 1373.292969 512.304688 1396.277344 C 580.980469 1418.421875 646.296875 1478.972656 722.261719 1478.972656 C 798.230469 1478.972656 863.824219 1418.421875 932.222656 1396.277344 C 1003.144531 1373.292969 1091.726562 1382.824219 1150.875 1339.933594 C 1210.582031 1296.484375 1228.523438 1209.023438 1271.972656 1149.316406 C 1315.140625 1090.167969 1392.792969 1046.4375 1415.777344 975.234375 C 1438.203125 906.835938 1401.761719 825.824219 1401.761719 749.859375 Z M 1401.761719 749.859375 " fill-opacity="1" fill-rule="nonzero"/><g clip-path="url(#cc1afd3cc4)"><path fill="#10335a" d="M 722.261719 1499.996094 C 669.5625 1499.996094 623.589844 1475.046875 579.019531 1450.660156 C 553.789062 1436.925781 529.683594 1423.75 505.855469 1416.179688 C 480.347656 1408.050781 452.59375 1404.128906 423.160156 1400.203125 C 373.542969 1393.476562 322.246094 1386.46875 281.597656 1356.753906 C 240.390625 1326.757812 217.964844 1279.945312 196.101562 1234.8125 C 183.207031 1208.183594 171.152344 1182.953125 155.734375 1161.648438 C 140.597656 1140.90625 120.414062 1121.84375 99.390625 1101.660156 C 62.667969 1066.902344 24.824219 1031.019531 8.847656 981.683594 C -6.570312 934.589844 2.679688 884.132812 11.371094 835.355469 C 16.414062 806.761719 21.742188 777.328125 21.742188 749.859375 C 21.742188 722.386719 16.414062 692.953125 11.371094 664.359375 C 2.679688 615.585938 -6.570312 565.125 8.847656 518.03125 C 24.824219 468.695312 62.667969 432.816406 99.109375 398.335938 C 120.414062 378.152344 140.316406 359.089844 155.453125 338.347656 C 170.871094 317.042969 182.925781 291.8125 195.820312 265.183594 C 217.40625 220.050781 240.113281 173.238281 281.320312 143.242188 C 322.246094 113.53125 373.265625 106.523438 422.882812 99.792969 C 452.316406 95.871094 480.347656 91.945312 505.574219 83.816406 C 529.402344 75.96875 553.511719 63.070312 578.738281 49.335938 C 623.308594 25.230469 669.28125 0 721.984375 0 C 774.683594 0 820.65625 24.949219 865.226562 49.335938 C 890.457031 63.070312 914.5625 76.246094 938.390625 83.816406 C 963.621094 91.945312 991.652344 95.871094 1021.085938 99.792969 C 1070.703125 106.523438 1122 113.53125 1162.648438 143.242188 C 1203.855469 173.238281 1226.28125 220.050781 1248.144531 265.183594 C 1261.039062 291.8125 1273.09375 317.042969 1288.511719 338.347656 C 1303.648438 359.089844 1323.832031 378.152344 1344.855469 398.335938 C 1381.296875 433.09375 1419.140625 468.976562 1435.121094 518.03125 C 1450.539062 565.125 1441.285156 615.585938 1432.597656 664.359375 C 1427.550781 692.953125 1422.226562 722.386719 1422.226562 749.859375 C 1422.226562 777.328125 1427.550781 806.761719 1432.597656 835.355469 C 1441.285156 884.132812 1450.539062 934.589844 1435.121094 981.683594 C 1419.140625 1031.019531 1381.296875 1066.902344 1344.855469 1101.378906 C 1323.550781 1121.5625 1303.648438 1140.625 1288.511719 1161.371094 C 1273.09375 1182.671875 1261.039062 1207.902344 1248.144531 1234.53125 C 1226.5625 1279.664062 1203.855469 1326.476562 1162.648438 1356.472656 C 1121.722656 1386.1875 1070.703125 1393.195312 1021.085938 1399.921875 C 991.652344 1403.847656 963.621094 1407.769531 938.390625 1415.902344 C 914.5625 1423.75 890.457031 1436.644531 865.226562 1450.378906 C 821.21875 1475.046875 775.246094 1499.996094 722.261719 1499.996094 Z M 722.261719 41.769531 C 680.214844 41.769531 640.691406 63.070312 598.921875 85.777344 C 573.132812 99.792969 546.222656 114.371094 518.75 123.339844 C 489.878906 132.871094 458.761719 137.078125 428.488281 141 C 381.953125 147.449219 338.222656 153.335938 305.988281 176.882812 C 273.46875 200.710938 254.128906 240.796875 233.664062 283.125 C 220.488281 310.316406 207.035156 338.628906 189.375 362.734375 C 171.992188 386.5625 149.566406 407.867188 127.984375 428.609375 C 93.785156 461.128906 61.265625 491.964844 48.652344 530.925781 C 36.597656 567.929688 44.449219 611.097656 52.578125 656.792969 C 58.183594 687.066406 63.789062 718.460938 63.789062 749.859375 C 63.789062 780.972656 58.183594 812.371094 52.578125 842.925781 C 44.449219 888.617188 36.597656 931.785156 48.652344 968.789062 C 61.265625 1007.753906 93.785156 1038.589844 127.984375 1071.105469 C 149.566406 1091.570312 171.992188 1112.875 189.375 1136.980469 C 207.035156 1161.367188 220.488281 1189.402344 233.664062 1216.59375 C 254.128906 1258.921875 273.191406 1299.007812 305.988281 1322.832031 C 338.222656 1346.378906 381.953125 1352.265625 428.488281 1358.714844 C 458.480469 1362.917969 489.597656 1367.125 518.75 1376.375 C 546.503906 1385.34375 573.132812 1399.921875 598.921875 1413.9375 C 640.691406 1436.644531 680.214844 1457.949219 722.261719 1457.949219 C 764.3125 1457.949219 803.835938 1436.644531 845.605469 1413.9375 C 871.394531 1399.921875 898.304688 1385.34375 925.777344 1376.375 C 954.648438 1366.84375 985.765625 1362.640625 1016.039062 1358.714844 C 1062.574219 1352.265625 1106.304688 1346.378906 1138.539062 1322.832031 C 1171.058594 1299.007812 1190.398438 1258.921875 1210.863281 1216.59375 C 1224.039062 1189.402344 1237.492188 1161.089844 1255.152344 1136.980469 C 1272.535156 1113.152344 1294.960938 1091.847656 1316.542969 1071.105469 C 1350.742188 1038.589844 1383.261719 1007.753906 1395.875 968.789062 C 1407.929688 931.785156 1400.078125 888.617188 1391.949219 842.925781 C 1386.34375 812.648438 1380.738281 781.253906 1380.738281 749.859375 C 1380.738281 718.742188 1386.34375 687.347656 1391.949219 656.792969 C 1400.078125 611.097656 1407.929688 567.929688 1395.875 530.925781 C 1383.261719 491.964844 1350.742188 461.128906 1316.542969 428.609375 C 1294.960938 408.148438 1272.535156 386.84375 1255.152344 362.734375 C 1237.492188 338.347656 1224.039062 310.316406 1210.863281 283.125 C 1190.398438 240.796875 1171.335938 200.710938 1138.539062 176.882812 C 1106.304688 153.335938 1062.292969 147.449219 1016.039062 141 C 986.046875 136.796875 954.929688 132.589844 925.777344 123.339844 C 898.023438 114.371094 871.394531 99.792969 845.605469 85.777344 C 803.835938 63.351562 764.59375 41.769531 722.261719 41.769531 Z M 722.261719 41.769531 " fill-opacity="1" fill-rule="nonzero"/></g><g mask="url(#10b99157f1)"><g transform="matrix(1, 0, 0, 1, 630, 423)"><g clip-path="url(#a0beb05189)"><g clip-path="url(#28a9713083)"><path fill="#10335a" d="M 567.667969 1.207031 L 567.667969 84.4375 L 345.34375 84.4375 C 393.988281 112.179688 433.703125 147.332031 464.484375 189.898438 C 495.269531 232.085938 510.660156 276.929688 510.660156 324.433594 C 510.660156 386.382812 486.148438 437.6875 437.121094 478.351562 C 388.476562 519.019531 333.179688 539.351562 271.234375 539.351562 C 197.882812 539.351562 134.605469 510.65625 81.398438 453.269531 C 28.195312 395.503906 1.589844 328.425781 1.589844 252.035156 C 1.589844 198.070312 15.460938 150.375 43.207031 108.949219 C 71.328125 67.523438 103.824219 39.210938 140.6875 24.007812 C 177.933594 8.808594 228.097656 1.207031 291.183594 1.207031 Z M 307.144531 84.4375 L 287.195312 84.4375 C 230.1875 84.4375 184.582031 98.6875 150.378906 127.191406 C 116.554688 155.316406 99.640625 199.589844 99.640625 260.015625 C 99.640625 324.246094 117.503906 381.0625 153.230469 430.464844 C 188.953125 479.492188 230.757812 504.003906 278.644531 504.003906 C 317.027344 504.003906 348.761719 485.574219 373.84375 448.710938 C 398.925781 411.464844 411.46875 366.621094 411.46875 314.171875 C 411.46875 230.945312 376.695312 154.363281 307.144531 84.4375 Z M 307.144531 84.4375 " fill-opacity="1" fill-rule="nonzero"/></g></g></g></g><g mask="url(#b2910e34df)"><g transform="matrix(1, 0, 0, 1, 245, 423)"><g clip-path="url(#27a846b52b)"><g clip-path="url(#5bae6bd11f)"><g clip-path="url(#6a30d41323)"><g clip-path="url(#f1b887800d)"><path fill="#10335a" d="M 96.84375 765.875 L 2.167969 765.910156 C 15.808594 723.457031 22.617188 659.230469 22.585938 573.226562 L 22.476562 260.960938 C 22.445312 172.742188 47.335938 107.402344 97.152344 64.9375 C 146.96875 22.472656 201.957031 1.226562 262.121094 1.207031 C 327.457031 1.183594 380.0625 23.679688 419.941406 68.699219 C 459.820312 113.347656 479.773438 172.027344 479.796875 244.742188 C 479.824219 324.101562 455.117188 392.949219 405.679688 451.285156 C 356.238281 509.625 299.773438 538.804688 236.289062 538.824219 C 193.472656 538.839844 152.679688 525.199219 113.914062 497.898438 L 113.9375 570.425781 C 113.964844 647.570312 108.269531 712.722656 96.84375 765.875 Z M 113.867188 369.445312 C 113.882812 414.109375 125.707031 448.246094 149.339844 471.863281 C 172.972656 495.109375 203.054688 506.722656 239.597656 506.710938 C 282.785156 506.695312 318.765625 488.226562 347.542969 451.304688 C 376.691406 414.015625 391.253906 364.917969 391.230469 304.015625 C 391.203125 226.871094 371.4375 165.792969 331.925781 120.773438 C 292.414062 75.757812 248.484375 53.257812 200.128906 53.273438 C 167.277344 53.285156 144.582031 63.628906 132.039062 84.300781 C 119.867188 104.609375 113.789062 137.828125 113.804688 183.96875 Z M 113.867188 369.445312 " fill-opacity="1" fill-rule="nonzero"/></g></g></g></g></g></g><g clip-path="url(#17607497f1)"><g clip-path="url(#c132e8bc44)"><g clip-path="url(#0b46444edd)"><path fill="#10335a" d="M 536.457031 1188.875 L 441.78125 1188.910156 C 455.421875 1146.457031 462.230469 1082.230469 462.199219 996.226562 L 462.089844 683.960938 C 462.058594 595.742188 486.949219 530.402344 536.765625 487.9375 C 586.578125 445.472656 641.570312 424.226562 701.734375 424.207031 C 767.066406 424.183594 819.671875 446.679688 859.554688 491.699219 C 899.433594 536.347656 919.386719 595.027344 919.410156 667.742188 C 919.4375 747.101562 894.730469 815.949219 845.292969 874.285156 C 795.851562 932.625 739.386719 961.804688 675.902344 961.824219 C 633.082031 961.839844 592.292969 948.199219 553.527344 920.898438 L 553.550781 993.425781 C 553.578125 1070.570312 547.882812 1135.722656 536.457031 1188.875 Z M 553.480469 792.445312 C 553.496094 837.109375 565.320312 871.246094 588.953125 894.863281 C 612.582031 918.109375 642.667969 929.722656 679.210938 929.710938 C 722.398438 929.695312 758.378906 911.226562 787.15625 874.304688 C 816.304688 837.015625 830.867188 787.917969 830.84375 727.015625 C 830.816406 649.871094 811.050781 588.792969 771.539062 543.773438 C 732.027344 498.757812 688.097656 476.257812 639.742188 476.273438 C 606.890625 476.285156 584.195312 486.628906 571.652344 507.300781 C 559.480469 527.609375 553.398438 560.828125 553.417969 606.96875 Z M 553.480469 792.445312 " fill-opacity="1" fill-rule="nonzero"/></g></g></g><g clip-path="url(#40abc4aeb4)"><g clip-path="url(#a2c19df8bd)"><g clip-path="url(#c655cea492)"><path fill="#10335a" d="M 515.992188 525.210938 L 445.089844 410.546875 C 443.570312 408.085938 443.082031 403.46875 446.183594 401.550781 C 446.886719 401.113281 447.726562 400.941406 448.546875 401.054688 C 482.792969 405.960938 516.910156 410.96875 552.75 416.367188 C 564.949219 381.066406 587.121094 315.886719 587.347656 315.210938 C 587.792969 313.914062 588.941406 312.992188 590.300781 312.835938 C 591.664062 312.683594 592.988281 313.328125 593.710938 314.492188 L 666.097656 431.566406 C 667.128906 433.230469 666.613281 435.40625 664.949219 436.433594 L 630.339844 457.835938 C 628.679688 458.863281 626.5 458.351562 625.46875 456.6875 L 623.050781 452.773438 C 621.140625 449.6875 621.433594 446.890625 623.921875 444.464844 C 624.363281 443.964844 624.839844 443.53125 625.324219 443.105469 C 625.589844 442.871094 625.875 442.644531 626.109375 442.359375 C 635.878906 431.347656 639.144531 427.667969 629.546875 412.148438 C 622.648438 401.53125 611.195312 383.125 605.125 373.324219 L 598.421875 390.828125 C 592.132812 407.226562 585.972656 423.304688 579.386719 440.640625 C 578.800781 442.175781 577.230469 443.109375 575.605469 442.894531 L 495.84375 432.074219 L 528.589844 485.0625 C 534.449219 494.539062 542.511719 498.34375 553.230469 496.691406 C 553.660156 496.578125 554.414062 496.5 555.175781 496.433594 C 555.601562 496.394531 556.027344 496.363281 556.414062 496.273438 C 562.386719 494.621094 567.855469 496.558594 570.90625 501.496094 C 571.507812 502.46875 571.753906 503.15625 571.753906 503.15625 C 572.410156 504.972656 571.515625 507.035156 569.714844 507.726562 L 520.261719 526.65625 C 518.679688 527.265625 516.886719 526.660156 515.992188 525.210938 Z M 515.992188 525.210938 " fill-opacity="1" fill-rule="nonzero"/></g></g></g></g></g></svg>