<svg xmlns="http://www.w3.org/2000/svg" xmlns:xlink="http://www.w3.org/1999/xlink" width="2000" zoomAndPan="magnify" viewBox="0 0 1500 1499.999933" height="2000" preserveAspectRatio="xMidYMid meet" version="1.0"><defs><filter x="0%" y="0%" width="100%" height="100%" id="6b5255ca48"><feColorMatrix values="0 0 0 0 1 0 0 0 0 1 0 0 0 0 1 0 0 0 1 0" color-interpolation-filters="sRGB"/></filter><mask id="46eaef4f8f"><g filter="url(#6b5255ca48)"><rect x="-150" width="1800" fill="#000000" y="-149.999993" height="1799.99992" fill-opacity="0.33"/></g></mask><clipPath id="bb92527b1b"><path d="M 1.304688 1 L 893.804688 1 L 893.804688 849.960938 L 1.304688 849.960938 Z M 1.304688 1 " clip-rule="nonzero"/></clipPath><clipPath id="d0022d4460"><rect x="0" width="894" y="0" height="852"/></clipPath><mask id="9b6c5d4d2c"><g filter="url(#6b5255ca48)"><rect x="-150" width="1800" fill="#000000" y="-149.999993" height="1799.99992" fill-opacity="0.33"/></g></mask><clipPath id="1dfe8e82e7"><path d="M 1 1 L 755 1 L 755 1207.917969 L 1 1207.917969 Z M 1 1 " clip-rule="nonzero"/></clipPath><clipPath id="efd24927e9"><path d="M 0 1.226562 L 755.25 0.960938 L 755.671875 1206.960938 L 0.421875 1207.226562 Z M 0 1.226562 " clip-rule="nonzero"/></clipPath><clipPath id="97879c0ab9"><path d="M 0 1.226562 L 755.25 0.960938 L 755.671875 1206.960938 L 0.421875 1207.226562 Z M 0 1.226562 " clip-rule="nonzero"/></clipPath><clipPath id="ed3e7f804d"><rect x="0" width="756" y="0" height="1208"/></clipPath><clipPath id="b288518c0e"><path d="M 308 265 L 1062 265 L 1062 1472 L 308 1472 Z M 308 265 " clip-rule="nonzero"/></clipPath><clipPath id="e975268325"><path d="M 306.886719 265.226562 L 1062.136719 264.960938 L 1062.5625 1470.960938 L 307.3125 1471.226562 Z M 306.886719 265.226562 " clip-rule="nonzero"/></clipPath><clipPath id="a23b6a0a38"><path d="M 306.886719 265.226562 L 1062.136719 264.960938 L 1062.5625 1470.960938 L 307.3125 1471.226562 Z M 306.886719 265.226562 " clip-rule="nonzero"/></clipPath><clipPath id="8a6656a5b3"><path d="M 228 35 L 689 35 L 689 478 L 228 478 Z M 228 35 " clip-rule="nonzero"/></clipPath><clipPath id="9f1995146f"><path d="M 534.175781 31.542969 L 703.78125 305.839844 L 392.484375 498.324219 L 222.875 224.023438 Z M 534.175781 31.542969 " clip-rule="nonzero"/></clipPath><clipPath id="55fab139f9"><path d="M 534.175781 31.542969 L 703.78125 305.839844 L 392.484375 498.324219 L 222.875 224.023438 Z M 534.175781 31.542969 " clip-rule="nonzero"/></clipPath></defs><rect x="-150" width="1800" fill="#ffffff" y="-149.999993" height="1799.99992" fill-opacity="1"/><rect x="-150" width="1800" fill="#10335a" y="-149.999993" height="1799.99992" fill-opacity="1"/><g mask="url(#46eaef4f8f)"><g transform="matrix(1, 0, 0, 1, 606, 264)"><g clip-path="url(#d0022d4460)"><g clip-path="url(#bb92527b1b)"><path fill="#fefbf2" d="M 894.160156 1.140625 L 894.160156 132.398438 L 543.542969 132.398438 C 620.261719 176.152344 682.894531 231.589844 731.441406 298.71875 C 779.984375 365.246094 804.261719 435.96875 804.261719 510.890625 C 804.261719 608.582031 765.601562 689.496094 688.285156 753.625 C 611.570312 817.753906 524.363281 849.820312 426.671875 849.820312 C 310.996094 849.820312 211.203125 804.570312 127.296875 714.070312 C 43.386719 622.964844 1.433594 517.179688 1.433594 396.714844 C 1.433594 311.605469 23.308594 236.386719 67.0625 171.058594 C 111.414062 105.726562 162.65625 61.078125 220.792969 37.101562 C 279.53125 13.128906 358.644531 1.140625 458.136719 1.140625 Z M 483.308594 132.398438 L 451.84375 132.398438 C 361.941406 132.398438 290.019531 154.875 236.078125 199.828125 C 182.734375 244.179688 156.066406 314 156.066406 409.296875 C 156.066406 510.589844 184.234375 600.191406 240.574219 678.105469 C 296.914062 755.421875 362.839844 794.082031 438.359375 794.082031 C 498.890625 794.082031 548.9375 765.011719 588.496094 706.875 C 628.050781 648.140625 647.832031 577.417969 647.832031 494.707031 C 647.832031 363.449219 592.992188 242.679688 483.308594 132.398438 Z M 483.308594 132.398438 " fill-opacity="1" fill-rule="nonzero"/></g></g></g></g><g mask="url(#9b6c5d4d2c)"><g transform="matrix(1, 0, 0, 1, 0, 264)"><g clip-path="url(#ed3e7f804d)"><g clip-path="url(#1dfe8e82e7)"><g clip-path="url(#efd24927e9)"><g clip-path="url(#97879c0ab9)"><path fill="#fefbf2" d="M 150.546875 1207.066406 L 1.238281 1207.117188 C 22.753906 1140.171875 33.484375 1038.878906 33.4375 903.25 L 33.265625 410.800781 C 33.214844 271.679688 72.472656 168.636719 151.03125 101.667969 C 229.589844 34.699219 316.3125 1.195312 411.191406 1.164062 C 514.222656 1.128906 597.183594 36.605469 660.074219 107.601562 C 722.964844 178.011719 754.433594 270.554688 754.472656 385.226562 C 754.515625 510.378906 715.554688 618.953125 637.585938 710.949219 C 559.617188 802.949219 470.574219 848.964844 370.453125 849 C 302.929688 849.023438 238.601562 827.507812 177.464844 784.457031 L 177.503906 898.835938 C 177.546875 1020.496094 168.5625 1123.238281 150.546875 1207.066406 Z M 177.394531 581.886719 C 177.417969 652.320312 196.066406 706.15625 233.332031 743.398438 C 270.597656 780.054688 318.046875 798.375 375.675781 798.355469 C 443.777344 798.332031 500.523438 769.207031 545.90625 710.980469 C 591.871094 652.171875 614.835938 574.746094 614.800781 478.699219 C 614.757812 357.042969 583.582031 260.71875 521.273438 189.722656 C 458.964844 118.730469 389.683594 83.246094 313.429688 83.273438 C 261.621094 83.292969 225.828125 99.601562 206.050781 132.207031 C 186.851562 164.230469 177.265625 216.621094 177.292969 289.382812 Z M 177.394531 581.886719 " fill-opacity="1" fill-rule="nonzero"/></g></g></g></g></g></g><g clip-path="url(#b288518c0e)"><g clip-path="url(#e975268325)"><g clip-path="url(#a23b6a0a38)"><path fill="#fefbf2" d="M 457.433594 1471.066406 L 308.125 1471.117188 C 329.640625 1404.171875 340.375 1302.878906 340.328125 1167.25 L 340.152344 674.800781 C 340.105469 535.679688 379.359375 432.636719 457.917969 365.667969 C 536.480469 298.699219 623.199219 265.195312 718.082031 265.164062 C 821.113281 265.128906 904.074219 300.605469 966.964844 371.601562 C 1029.855469 442.011719 1061.320312 534.554688 1061.359375 649.226562 C 1061.40625 774.378906 1022.441406 882.953125 944.472656 974.949219 C 866.503906 1066.949219 777.460938 1112.964844 677.339844 1113 C 609.816406 1113.023438 545.488281 1091.507812 484.351562 1048.457031 L 484.394531 1162.835938 C 484.4375 1284.496094 475.449219 1387.238281 457.433594 1471.066406 Z M 484.28125 845.886719 C 484.308594 916.320312 502.953125 970.15625 540.21875 1007.398438 C 577.488281 1044.054688 624.933594 1062.375 682.5625 1062.355469 C 750.667969 1062.332031 807.410156 1033.207031 852.792969 974.980469 C 898.757812 916.171875 921.722656 838.746094 921.691406 742.699219 C 921.648438 621.042969 890.472656 524.71875 828.164062 453.722656 C 765.851562 382.730469 696.574219 347.246094 620.320312 347.273438 C 568.511719 347.292969 532.71875 363.601562 512.9375 396.207031 C 493.742188 428.230469 484.152344 480.621094 484.179688 553.382812 Z M 484.28125 845.886719 " fill-opacity="1" fill-rule="nonzero"/></g></g></g><g clip-path="url(#8a6656a5b3)"><g clip-path="url(#9f1995146f)"><g clip-path="url(#55fab139f9)"><path fill="#fefbf2" d="M 377.496094 473.910156 L 231.027344 237.03125 C 227.886719 231.953125 226.878906 222.410156 233.289062 218.445312 C 234.742188 217.546875 236.472656 217.191406 238.171875 217.421875 C 308.910156 227.558594 379.390625 237.90625 453.429688 249.054688 C 478.632812 176.132812 524.433594 41.484375 524.90625 40.089844 C 525.820312 37.414062 528.195312 35.503906 531.007812 35.183594 C 533.816406 34.863281 536.558594 36.195312 538.046875 38.601562 L 687.585938 280.453125 C 689.710938 283.890625 688.644531 288.390625 685.214844 290.511719 L 613.714844 334.722656 C 610.285156 336.84375 605.78125 335.789062 603.65625 332.347656 L 598.65625 324.265625 C 594.710938 317.886719 595.316406 312.109375 600.460938 307.097656 C 601.367188 306.0625 602.351562 305.171875 603.355469 304.292969 C 603.90625 303.804688 604.488281 303.34375 604.972656 302.75 C 625.15625 280.003906 631.902344 272.402344 612.078125 240.339844 C 597.824219 218.410156 574.164062 180.382812 561.628906 160.136719 L 547.777344 196.296875 C 534.789062 230.175781 522.066406 263.390625 508.457031 299.203125 C 507.246094 302.375 504.003906 304.300781 500.644531 303.855469 L 335.875 281.503906 L 403.523438 390.96875 C 415.625 410.539062 432.277344 418.402344 454.421875 414.988281 C 455.308594 414.757812 456.867188 414.59375 458.441406 414.457031 C 459.320312 414.375 460.199219 414.3125 461.003906 414.125 C 473.339844 410.710938 484.632812 414.71875 490.9375 424.914062 C 492.179688 426.921875 492.6875 428.34375 492.6875 428.34375 C 494.046875 432.09375 492.195312 436.355469 488.476562 437.789062 L 386.316406 476.890625 C 383.046875 478.148438 379.34375 476.898438 377.496094 473.910156 Z M 377.496094 473.910156 " fill-opacity="1" fill-rule="nonzero"/></g></g></g></svg>